<svg viewBox="0 0 52 52" fill="none" xmlns="http://www.w3.org/2000/svg">
<circle cx="26" cy="26" r="26" fill="#6082C0"/>
<path d="M37.73 14.27C37.37 13.91 36.7869 13.91 36.4269 14.27L26 24.6969L15.5731 14.27C15.2131 13.91 14.6299 13.91 14.27 14.27C13.91 14.63 13.91 15.2131 14.27 15.5731L24.6969 26L14.27 36.4269C13.91 36.7869 13.91 37.3701 14.27 37.73C14.63 38.09 15.2131 38.09 15.5731 37.73L26 27.3031L36.4269 37.73C36.7869 38.09 37.3701 38.09 37.73 37.73C38.09 37.37 38.09 36.7869 37.73 36.4269L27.3031 26L37.73 15.5731C38.09 15.2131 38.09 14.6299 37.73 14.27Z" fill="white"/>
</svg>
