<svg viewBox="0 0 211 143" fill="none" xmlns="http://www.w3.org/2000/svg">
<path opacity="0.1" d="M7.17514 136.276V139.146L1.43457 138.514V136.276H7.17514Z" fill="white"/>
<path d="M11.814 97.1267L44.8977 91.7111V123.219L13.4639 121.564L11.814 97.1267Z" fill="#6082C0"/>
<path opacity="0.05" d="M11.814 97.1267L44.8977 91.7111V123.219L13.4639 121.564L11.814 97.1267Z" fill="black"/>
<path d="M44.8989 91.7111L84.2844 94.6977L82.1048 122.117L44.8989 123.219V91.7111Z" fill="#6082C0"/>
<path opacity="0.1" d="M44.8989 91.7111L84.2844 94.6977L82.1048 122.117L44.8989 123.219V91.7111Z" fill="black"/>
<path d="M56.9724 82.2583L44.8989 91.8751L84.1687 94.8616L90.5861 85.0202L56.9724 82.2583Z" fill="#6082C0"/>
<path d="M0 86.7016L29.6761 83.0465L44.8994 91.7989L11.9355 97.2253L0 86.7016Z" fill="#6082C0"/>
<path d="M51.9871 99.9816V142.912L36.552 141.318L29.838 140.629L27.7925 140.414L21.0827 139.72L11.814 138.764V97.2249L44.7596 99.482L51.9871 99.9816Z" fill="#6082C0"/>
<path d="M84.2834 94.8618V136.678L71.9102 139.066L65.8927 140.228L51.9873 142.912V100.033L84.2834 94.8618Z" fill="#6082C0"/>
<path opacity="0.05" d="M84.2834 94.8618V136.678L71.9102 139.066L65.8927 140.228L51.9873 142.912V100.033L84.2834 94.8618Z" fill="black"/>
<path d="M0 106.134L11.9041 97.2249L51.9888 99.9427L46.088 109.828L0 106.134Z" fill="#6082C0"/>
<path opacity="0.1" d="M0 106.134L11.9041 97.2249L51.9888 99.9427L46.088 109.828L0 106.134Z" fill="white"/>
<path d="M84.1356 94.8618L51.9873 100.15L62.4506 109.828L96.8867 103.863L84.1356 94.8618Z" fill="#6082C0"/>
<path opacity="0.1" d="M84.1356 94.8618L51.9873 100.15L62.4506 109.828L96.8867 103.863L84.1356 94.8618Z" fill="white"/>
<path opacity="0.1" d="M71.6814 138.614L66.1675 139.761V134.083L71.3324 132.672L71.6814 138.614Z" fill="white"/>
<path opacity="0.1" d="M78.7703 137.826L73.2563 138.974V130.145L78.4213 128.733L78.7703 137.826Z" fill="white"/>
<path fill-rule="evenodd" clip-rule="evenodd" d="M24.9754 119.061C24.2951 121.01 22.1871 122.43 19.692 122.43C18.5962 122.43 17.5751 122.156 16.7168 121.684C17.2446 123.481 18.9062 124.793 20.8742 124.793C23.2669 124.793 25.2066 122.854 25.2066 120.461C25.2066 119.971 25.1252 119.5 24.9754 119.061Z" fill="#F1F2F3"/>
<mask id="mask0_5259:51665" style="mask-type:alpha" maskUnits="userSpaceOnUse" x="16" y="119" width="10" height="6">
<path fill-rule="evenodd" clip-rule="evenodd" d="M24.9754 119.061C24.2951 121.01 22.1871 122.43 19.692 122.43C18.5962 122.43 17.5751 122.156 16.7168 121.684C17.2446 123.481 18.9062 124.793 20.8742 124.793C23.2669 124.793 25.2066 122.854 25.2066 120.461C25.2066 119.971 25.1252 119.5 24.9754 119.061Z" fill="white"/>
</mask>
<g mask="url(#mask0_5259:51665)">
<circle cx="22.0544" cy="124.007" r="1.57542" fill="#1D1F22"/>
<path d="M17.0648 123.912L16.9997 123.912L19.2009 124.85C19.7285 125.075 20.2923 125.19 20.8588 125.19L21.6158 125.19C22.7687 125.19 23.8023 124.522 24.2779 123.468L24.2779 123.318C24.2779 123.247 24.2251 123.185 24.155 123.174C23.7238 123.109 23.2865 123.147 22.8778 123.285L22.4993 123.412L21.3186 123.707C20.7797 123.842 20.214 123.848 19.6655 123.725L19.2043 123.621C18.7636 123.522 18.3072 123.563 17.8984 123.74C17.6361 123.854 17.3527 123.912 17.0648 123.912Z" fill="#4D9AF5"/>
</g>
<path fill-rule="evenodd" clip-rule="evenodd" d="M35.9394 119.777C36.4252 121.809 38.425 123.436 40.9412 123.647C41.997 123.735 43.0046 123.563 43.8789 123.19C43.2946 124.892 41.6803 126.115 39.7803 126.115C37.3876 126.115 35.4479 124.175 35.4479 121.783C35.4479 121.059 35.6255 120.376 35.9394 119.777Z" fill="#F1F2F3"/>
<mask id="mask1_5259:51665" style="mask-type:alpha" maskUnits="userSpaceOnUse" x="35" y="119" width="10" height="8">
<path fill-rule="evenodd" clip-rule="evenodd" d="M36.2406 119.28C36.3733 121.771 38.4355 123.751 40.96 123.751C42.1318 123.751 43.2039 123.324 44.0298 122.618C43.64 124.611 41.8846 126.114 39.7781 126.114C37.3854 126.114 35.4457 124.174 35.4457 121.782C35.4457 120.85 35.7399 119.987 36.2406 119.28Z" fill="white"/>
</mask>
<g mask="url(#mask1_5259:51665)">
<circle r="1.57542" transform="matrix(-1 0 0 1 38.5979 125.326)" fill="#1D1F22"/>
<path d="M41.9037 125.327L42.5017 125.351C43.3392 125.385 44.0005 126.074 44.0005 126.912H40.4498C39.5603 126.912 38.6869 126.675 37.9197 126.225L35.0005 124.512C35.0005 123.799 35.7707 123.352 36.3897 123.706L38.0331 124.645C38.3394 124.82 38.686 124.912 39.0388 124.912H39.9071C40.2994 124.912 40.6883 124.984 41.0547 125.124L41.2116 125.184C41.433 125.269 41.6668 125.317 41.9037 125.327Z" fill="#4D9AF5"/>
</g>
<path fill-rule="evenodd" clip-rule="evenodd" d="M35.4048 132.205C34.1877 129.969 31.9485 128.414 29.3157 128.275C26.6791 128.136 24.2858 129.452 22.8412 131.552C23.9117 129.038 26.4683 127.337 29.356 127.489C32.2402 127.641 34.6017 129.596 35.4048 132.205Z" fill="#F1F2F3"/>
<path fill-rule="evenodd" clip-rule="evenodd" d="M36.3493 132.427C36.1144 132.201 35.7801 132.099 35.454 132.186C35.1353 132.272 34.9004 132.518 34.8056 132.822C34.8417 132.482 35.0815 132.184 35.4308 132.091C35.7869 131.995 36.1508 132.141 36.3493 132.427Z" fill="#F1F2F3"/>
<path fill-rule="evenodd" clip-rule="evenodd" d="M22.0607 131.574C22.3438 131.423 22.6869 131.414 22.9748 131.58C23.2668 131.749 23.4308 132.057 23.4373 132.383C23.5 132.039 23.3456 131.679 23.0261 131.494C22.7104 131.312 22.3264 131.355 22.0607 131.574Z" fill="#F1F2F3"/>
<path d="M114.956 39.0205L114.958 39.0221C114.961 39.0274 114.961 39.0311 114.964 39.0364C114.985 39.0937 115.022 39.1393 115.067 39.1744C115.102 39.2015 115.145 39.2218 115.191 39.2341C116.114 39.4529 117.086 39.4595 118.053 39.2787C118.06 39.2777 118.064 39.2808 118.069 39.2782C118.077 39.2772 118.084 39.2724 118.091 39.2714C119.985 38.9096 121.856 37.828 123.29 36.1716C125.503 33.6189 125.06 31.6535 124.125 29.2058L125.778 27.2964C125.903 27.1528 125.891 26.9398 125.752 26.8182C125.602 26.6848 125.401 26.7149 125.276 26.8586L123.623 28.768C121.079 28.1763 119.076 28.0092 116.862 30.5641C114.685 33.0702 113.938 36.3867 114.956 39.0204L114.956 39.0205ZM115.194 36.5191L116.901 36.5168L115.424 38.2207C115.272 37.6754 115.196 37.1043 115.194 36.5191L115.194 36.5191ZM115.671 33.8373L119.229 33.8332L117.492 35.8371L115.212 35.8409C115.276 35.1749 115.429 34.5002 115.671 33.8373L115.671 33.8373ZM117.238 31.1588L121.551 31.1521L119.816 33.1539L115.968 33.1593C116.297 32.4618 116.718 31.7853 117.238 31.1588L117.238 31.1588ZM120.846 37.4147L120.318 33.5919L122.055 31.588L122.648 35.876C122.101 36.4817 121.492 36.9946 120.846 37.4147L120.846 37.4147ZM118.306 38.5393L117.992 36.2735L119.728 34.2696L120.217 37.8042C119.599 38.1375 118.955 38.3861 118.306 38.5393L118.306 38.5393ZM115.926 38.6587L117.404 36.9527L117.639 38.6517C117.061 38.7309 116.487 38.7324 115.926 38.6587L115.926 38.6587ZM123.231 35.1694L122.642 30.909L123.614 29.7861C124.332 31.7317 124.603 33.2788 123.231 35.1694L123.231 35.1694ZM123.113 29.3519L122.141 30.4749L117.854 30.4817C119.536 28.8525 121.099 28.908 123.113 29.352L123.113 29.3519Z" fill="#6082C0"/>
<path d="M117.227 56.736L117.225 56.738C117.219 56.7401 117.216 56.7403 117.21 56.7425C117.152 56.7605 117.104 56.7947 117.067 56.8377C117.038 56.871 117.015 56.9132 117 56.9588C116.729 57.8671 116.667 58.8373 116.793 59.8127C116.793 59.8202 116.79 59.8241 116.792 59.8296C116.793 59.837 116.797 59.8442 116.798 59.8517C117.051 61.7631 118.024 63.693 119.596 65.2184C122.019 67.573 124.006 67.2435 126.503 66.4487L128.315 68.208C128.452 68.3409 128.665 68.341 128.794 68.2091C128.936 68.0673 128.917 67.8648 128.781 67.7319L126.969 65.9727C127.705 63.4664 127.985 61.4767 125.561 59.1203C123.183 56.8045 119.914 55.8697 117.227 56.7362L117.227 56.736ZM119.71 57.1162L119.616 58.8199L117.998 57.2483C118.552 57.128 119.126 57.085 119.71 57.1161L119.71 57.1162ZM122.361 57.7452L122.162 61.2969L120.26 59.449L120.387 57.1724C121.048 57.2742 121.713 57.4654 122.361 57.7453L122.361 57.7452ZM124.946 59.4623L124.707 63.7684L122.807 61.9223L123.021 58.0805C123.698 58.4484 124.35 58.9072 124.946 59.4623L124.946 59.4623ZM118.494 62.7073L122.341 62.3985L124.243 64.2464L119.928 64.5946C119.354 64.0141 118.877 63.3763 118.494 62.7074L118.494 62.7073ZM117.516 60.1075L119.796 59.9233L121.698 61.7712L118.141 62.0575C117.844 61.4215 117.632 60.7642 117.516 60.1075L117.516 60.1075ZM117.533 57.7246L119.152 59.2979L117.442 59.4356C117.396 58.8537 117.427 58.2809 117.533 57.7247L117.533 57.7246ZM120.6 65.2164L124.887 64.8715L125.953 65.9062C123.97 66.5117 122.41 66.6939 120.6 65.2164L120.6 65.2164ZM126.415 65.4303L125.349 64.3957L125.587 60.1158C127.117 61.8879 126.973 63.4448 126.415 65.4303L126.415 65.4303Z" fill="#6082C0"/>
<path d="M149.658 42.5931L149.658 42.5957C149.654 42.6005 149.652 42.6027 149.648 42.6076C149.61 42.6551 149.589 42.7101 149.582 42.7668C149.577 42.8106 149.582 42.8583 149.595 42.9045C149.878 43.8092 150.368 44.6484 151.017 45.3871C151.022 45.393 151.021 45.3981 151.026 45.4014C151.031 45.4072 151.039 45.4108 151.043 45.4166C152.322 46.8601 154.207 47.9167 156.363 48.3031C159.688 48.902 161.152 47.5181 162.779 45.4636L165.265 45.9098C165.452 45.9439 165.629 45.8248 165.662 45.6431C165.701 45.4464 165.572 45.2888 165.385 45.2548L162.899 44.8086C162.108 42.3191 161.229 40.5121 157.902 39.9129C154.636 39.3214 151.403 40.3728 149.658 42.5931L149.658 42.5931ZM151.93 41.5203L152.804 42.9862L150.584 42.5866C150.976 42.1777 151.428 41.821 151.93 41.5203L151.93 41.5203ZM154.48 40.5609L156.3 43.6172L153.69 43.1475L152.522 41.1891C153.128 40.904 153.786 40.691 154.48 40.561L154.48 40.5609ZM157.583 40.5403L159.791 44.2448L157.184 43.7755L155.214 40.4701C155.982 40.3965 156.779 40.413 157.583 40.5403L157.583 40.5403ZM154.046 46.8365L157.064 44.4308L159.673 44.9005L156.29 47.6005C155.49 47.4396 154.738 47.1775 154.046 46.8366L154.046 46.8365ZM151.782 45.2271L153.57 43.8002L156.18 44.2699L153.39 46.4949C152.788 46.1338 152.246 45.7069 151.782 45.2272L151.782 45.2271ZM150.464 43.2419L152.686 43.6419L151.345 44.7114C150.982 44.2547 150.688 43.7622 150.464 43.242L150.464 43.2419ZM157.195 47.7404L160.557 45.0587L162.019 45.3212C160.713 46.9317 159.521 47.9545 157.195 47.7404L157.195 47.7404ZM162.136 44.6684L160.674 44.406L158.48 40.7241C160.739 41.3382 161.49 42.7101 162.136 44.6684L162.136 44.6684Z" fill="#6082C0"/>
<path opacity="0.3" d="M84.4473 51.2629C84.4418 51.2654 84.434 51.2675 84.4296 51.2707C84.4279 51.2722 84.4267 51.2715 84.425 51.273C84.4233 51.2745 84.4226 51.2757 84.4216 51.276C84.4175 51.2802 84.4134 51.2843 84.4084 51.2888C84.4035 51.2942 84.3975 51.2989 84.3939 51.305C84.3918 51.3087 84.3903 51.3111 84.3879 51.3138C84.3872 51.315 84.3853 51.3156 84.3855 51.3165C84.0519 51.9329 83.8615 52.62 83.8045 53.3341C83.8036 53.3385 83.8014 53.3422 83.8015 53.3463C83.8008 53.3516 83.8023 53.3574 83.8029 53.3634C83.6979 54.7666 84.1148 56.2717 85.0264 57.5633C86.2886 59.3495 88.062 60.1034 90.2973 59.809L91.4126 61.3896C91.453 61.4467 91.534 61.461 91.5921 61.4208C91.6378 61.389 91.6564 61.3336 91.643 61.2836C91.6391 61.2692 91.6326 61.2566 91.6239 61.2434L90.5078 59.6641C91.2068 58.3395 91.3924 57.0464 91.0587 55.8008C90.8935 55.1843 90.6021 54.5799 90.185 53.9887C88.8015 52.0302 86.5625 50.9567 84.4811 51.2528C84.4792 51.2533 84.4784 51.2545 84.4762 51.2541L84.4665 51.2567C84.4601 51.2563 84.4538 51.2601 84.4473 51.2629L84.4473 51.2629ZM86.4158 51.6155L85.976 53.2453L84.7303 51.4815C85.2899 51.4283 85.8594 51.4743 86.4158 51.6155L86.4158 51.6155ZM84.5192 51.6286L85.765 53.3924L84.0692 53.2436C84.1258 52.6757 84.2771 52.1309 84.5192 51.6286L84.5192 51.6286ZM84.0507 53.4977L85.9571 53.6651L87.2698 55.5232L84.233 55.2572C84.0817 54.6689 84.0206 54.0749 84.0506 53.4977L84.0507 53.4977ZM89.8995 54.1218L88.986 57.5079L87.6732 55.6498L88.4921 52.6153C89.0273 53.0122 89.5144 53.5023 89.9259 54.0724C89.9149 54.0857 89.9046 54.1018 89.8995 54.1217L89.8995 54.1218ZM85.2516 57.3444C85.2323 57.3424 85.2135 57.3464 85.1955 57.3532C84.7961 56.7737 84.4982 56.1526 84.3057 55.5198L87.4622 55.7969L88.775 57.6549L85.2516 57.3444ZM85.3837 57.6116L88.9666 57.9258L90.1297 59.5718C88.1193 59.8027 86.5622 59.1587 85.3837 57.6115L85.3837 57.6116ZM90.342 59.4264L89.1797 57.7792L90.109 54.3354C91.1719 55.9619 91.2501 57.6321 90.3421 59.4265L90.342 59.4264ZM88.2693 52.4579C88.2683 52.4581 88.2683 52.4581 88.2686 52.4591L87.4811 55.3769L86.168 53.5179L86.6632 51.6859C87.221 51.8556 87.7634 52.1158 88.2693 52.4578L88.2693 52.4579Z" fill="#6082C0"/>
<path opacity="0.3" d="M109.712 95.4116C109.71 95.4174 109.706 95.4246 109.706 95.43C109.706 95.4322 109.705 95.4327 109.705 95.4349C109.705 95.4372 109.705 95.4385 109.704 95.4394C109.705 95.4453 109.705 95.4511 109.705 95.4579C109.706 95.465 109.705 95.4727 109.707 95.4794C109.709 95.4835 109.71 95.4862 109.71 95.4898C109.71 95.4911 109.709 95.4929 109.71 95.4934C109.944 96.1542 110.326 96.7562 110.818 97.2773C110.82 97.2809 110.822 97.2849 110.825 97.2876C110.828 97.2917 110.833 97.2944 110.838 97.298C111.809 98.3168 113.205 99.0167 114.775 99.2064C116.946 99.4676 118.695 98.6573 119.975 96.8015L121.895 97.0338C121.965 97.0422 122.03 96.9917 122.039 96.9216C122.046 96.8663 122.017 96.8154 121.971 96.7919C121.958 96.7851 121.944 96.7814 121.929 96.7791L120.009 96.5482C119.494 95.1415 118.66 94.1367 117.512 93.5492C116.943 93.2583 116.3 93.0693 115.581 92.9824C113.201 92.6957 110.903 93.637 109.727 95.3797C109.726 95.3815 109.727 95.3829 109.725 95.3842L109.72 95.3932C109.716 95.3977 109.714 95.4049 109.712 95.4116L109.712 95.4116ZM111.293 94.1875L112.208 95.6066L110.064 95.3482C110.4 94.8974 110.816 94.5057 111.293 94.1875L111.293 94.1875ZM110.032 95.6034L112.175 95.8618L110.928 97.0202C110.545 96.5975 110.242 96.1198 110.031 95.6034L110.032 95.6034ZM111.104 97.2042L112.507 95.9022L114.765 96.174L112.532 98.2487C111.994 97.9666 111.512 97.6136 111.104 97.2043L111.104 97.2042ZM115.489 93.2834L117.388 96.2315L115.13 95.9596L113.427 93.3175C114.081 93.1866 114.771 93.1538 115.47 93.2307C115.472 93.2478 115.477 93.2662 115.489 93.2834L115.489 93.2834ZM114.763 98.8925C114.749 98.9055 114.739 98.9221 114.732 98.94C114.034 98.8478 113.374 98.6524 112.775 98.3709L115.097 96.2148L117.356 96.4867L114.763 98.8925ZM115.05 98.9736L117.685 96.5261L119.686 96.7668C118.51 98.4132 116.988 99.1366 115.05 98.9736L115.05 98.9736ZM119.721 96.5118L117.72 96.2697L115.788 93.2712C117.707 93.5732 118.999 94.635 119.721 96.5118L119.721 96.5118ZM113.161 93.3772C113.161 93.3781 113.161 93.3781 113.162 93.3786L114.798 95.9192L112.539 95.6469L111.512 94.0512C112.011 93.7511 112.568 93.5232 113.161 93.3772L113.161 93.3772Z" fill="#6082C0"/>
<path opacity="0.3" d="M199.664 108.352C199.667 108.357 199.672 108.364 199.676 108.367C199.678 108.368 199.677 108.37 199.679 108.371C199.681 108.372 199.683 108.372 199.683 108.373C199.688 108.376 199.693 108.379 199.699 108.383C199.705 108.386 199.712 108.39 199.718 108.392C199.723 108.393 199.725 108.394 199.729 108.396C199.73 108.396 199.731 108.398 199.732 108.397C200.416 108.551 201.129 108.549 201.831 108.41C201.836 108.41 201.84 108.411 201.844 108.41C201.849 108.409 201.854 108.406 201.86 108.404C203.239 108.125 204.575 107.316 205.572 106.089C206.949 104.39 207.195 102.479 206.306 100.406L207.526 98.9048C207.57 98.8505 207.561 98.7686 207.507 98.7236C207.464 98.6882 207.406 98.6853 207.361 98.7117C207.348 98.7194 207.338 98.7291 207.328 98.741L206.11 100.243C204.645 99.9289 203.35 100.1 202.241 100.759C201.693 101.085 201.19 101.529 200.734 102.091C199.223 103.953 198.796 106.399 199.645 108.322C199.646 108.324 199.647 108.324 199.647 108.327L199.652 108.335C199.654 108.342 199.659 108.347 199.663 108.352L199.664 108.352ZM199.47 106.362L201.158 106.344L199.797 108.021C199.595 107.496 199.485 106.936 199.47 106.362L199.47 106.362ZM199.996 108.184L201.357 106.507L201.673 108.18C201.111 108.279 200.545 108.281 199.996 108.184L199.996 108.184ZM201.922 108.129L201.567 106.248L203 104.481L203.567 107.477C203.041 107.782 202.486 108.001 201.922 108.129L201.922 108.129ZM200.939 102.329L204.446 102.292L203.013 104.059L199.87 104.092C200.107 103.47 200.447 102.868 200.884 102.317C200.9 102.324 200.919 102.33 200.939 102.33L200.939 102.329ZM205.3 105.931C205.303 105.95 205.312 105.967 205.324 105.983C204.874 106.524 204.357 106.979 203.8 107.336L203.212 104.222L204.645 102.455L205.3 105.931ZM205.521 105.732L204.854 102.197L206.123 100.632C206.89 102.505 206.692 104.178 205.521 105.732L205.521 105.732ZM205.926 100.467L204.655 102.032L201.088 102.07C202.366 100.606 203.952 100.079 205.926 100.467L205.926 100.467ZM199.779 104.349C199.779 104.35 199.779 104.35 199.78 104.35L202.802 104.318L201.368 106.085L199.471 106.105C199.483 105.522 199.587 104.929 199.779 104.349L199.779 104.349Z" fill="#6082C0"/>
<path opacity="0.3" d="M120.196 3.84176C120.193 3.84689 120.187 3.85283 120.185 3.85789C120.184 3.86005 120.183 3.86012 120.182 3.86228C120.182 3.86443 120.182 3.86585 120.181 3.86659C120.18 3.87232 120.179 3.87805 120.177 3.88452C120.176 3.89167 120.173 3.89888 120.173 3.90596C120.174 3.9102 120.174 3.91303 120.173 3.9166C120.173 3.91802 120.172 3.91951 120.173 3.92018C120.222 4.61929 120.43 5.30125 120.765 5.93434C120.767 5.93851 120.767 5.94276 120.769 5.94619C120.772 5.95103 120.776 5.95507 120.78 5.95984C121.445 7.20011 122.604 8.24617 124.067 8.84648C126.091 9.67583 127.991 9.35982 129.719 7.91146L131.509 8.64622C131.573 8.67275 131.65 8.64131 131.677 8.57617C131.698 8.52477 131.684 8.46808 131.646 8.43313C131.635 8.42305 131.623 8.41587 131.609 8.4095L129.819 7.67617C129.698 6.18341 129.16 4.99277 128.21 4.12104C127.74 3.68958 127.169 3.33609 126.5 3.06128C124.281 2.15166 121.816 2.44793 120.219 3.81508C120.218 3.81657 120.218 3.81798 120.216 3.8188L120.209 3.82622C120.203 3.82934 120.2 3.83588 120.196 3.84175L120.196 3.84176ZM122.046 3.08246L122.55 4.69358L120.552 3.87428C120.995 3.52897 121.501 3.26206 122.046 3.08246L122.046 3.08246ZM120.453 4.11168L122.451 4.93099L120.94 5.71584C120.683 5.20639 120.518 4.66543 120.453 4.11167L120.453 4.11168ZM121.061 5.94013L122.759 5.058L124.864 5.92085L122.159 7.32672C121.716 6.91164 121.345 6.4433 121.061 5.94019L121.061 5.94013ZM126.331 3.32678L127.378 6.67396L125.273 5.81111L124.334 2.81136C124.999 2.85893 125.673 3.01091 126.326 3.27097C126.324 3.28809 126.324 3.30722 126.33 3.32675L126.331 3.32678ZM124.139 8.54084C124.122 8.54951 124.108 8.56295 124.097 8.5784C123.449 8.30393 122.864 7.93984 122.362 7.50927L125.173 6.04852L127.279 6.91136L124.139 8.54084ZM124.394 8.69535L127.586 7.03697L129.45 7.80127C127.878 9.07535 126.219 9.36797 124.394 8.69526L124.394 8.69535ZM129.552 7.56464L127.687 6.79892L126.622 3.39454C128.392 4.19617 129.354 5.56331 129.552 7.56471L129.552 7.56464ZM124.062 2.79815C124.061 2.7989 124.061 2.7989 124.062 2.79957L124.964 5.68404L122.858 4.82053L122.292 3.00911C122.854 2.85276 123.451 2.78111 124.062 2.79809L124.062 2.79815Z" fill="#6082C0"/>
<path opacity="0.3" d="M54.5038 66.5697C54.5062 66.5753 54.508 66.5832 54.5111 66.5876C54.5126 66.5893 54.5118 66.5906 54.5133 66.5923C54.5147 66.594 54.5159 66.5948 54.5161 66.5957C54.5202 66.6 54.5242 66.6042 54.5285 66.6094C54.5338 66.6143 54.5383 66.6205 54.5443 66.6243C54.5479 66.6265 54.5503 66.628 54.553 66.6305C54.5542 66.6313 54.5546 66.6332 54.5556 66.633C55.1621 66.9842 55.8434 67.1945 56.5556 67.272C56.56 67.2731 56.5636 67.2753 56.5677 67.2754C56.573 67.2762 56.5788 67.2748 56.5848 67.2744C57.9844 67.4199 59.5009 67.0466 60.8183 66.1727C62.6402 64.9625 63.4449 63.2116 63.2152 60.9687L64.8273 59.8995C64.8855 59.8608 64.9022 59.7802 64.8636 59.721C64.8331 59.6744 64.7783 59.6542 64.728 59.6662C64.7135 59.6696 64.7006 59.6758 64.6873 59.6841L63.0764 60.7541C61.7725 60.0172 60.4853 59.7943 59.2305 60.092C58.6095 60.2394 57.997 60.5131 57.394 60.9131C55.3965 62.2395 54.2588 64.4466 54.4946 66.5356C54.4951 66.5376 54.4963 66.5383 54.4958 66.5405L54.4981 66.5503C54.4976 66.5567 54.5012 66.5631 54.5037 66.5697L54.5038 66.5697ZM54.913 64.6122L56.5295 65.0988L54.7304 66.2932C54.6934 65.7323 54.7559 65.1643 54.913 64.6122L54.913 64.6122ZM54.8714 66.5084L56.6704 65.314L56.4728 67.0048C55.9068 66.9319 55.3665 66.7649 54.8714 66.5084L54.8714 66.5084ZM56.7262 67.0306L56.9486 65.1299L58.8438 63.8713L58.4902 66.8991C57.8978 67.0335 57.3023 67.0774 56.7262 67.0307L56.7262 67.0306ZM57.5188 61.2023L60.8771 62.2131L58.982 63.4717L55.9723 62.5656C56.3846 62.0421 56.8885 61.5693 57.4702 61.1744C57.4832 61.1859 57.499 61.1966 57.5187 61.2023L57.5188 61.2023ZM60.606 65.9412C60.6034 65.9605 60.6068 65.9794 60.6132 65.9975C60.0224 66.3801 59.393 66.6599 58.7548 66.8341L59.1229 63.6869L61.018 62.4283L60.606 65.9412ZM60.8768 65.8169L61.2943 62.2446L62.9731 61.1295C63.146 63.1456 62.4574 64.6835 60.8767 65.8169L60.8768 65.8169ZM62.834 60.913L61.1539 62.0273L57.7384 60.999C59.3949 59.9835 61.0666 59.9536 62.8341 60.9129L62.834 60.913ZM55.8086 62.7838C55.8088 62.7848 55.8088 62.7848 55.8098 62.7845L58.7036 63.6559L56.8075 64.9147L54.9906 64.3669C55.1762 63.8143 55.452 63.2796 55.8085 62.7838L55.8086 62.7838Z" fill="#6082C0"/>
<path opacity="0.3" d="M97.205 17.6766C97.2073 17.6823 97.2092 17.6901 97.2123 17.6946C97.2137 17.6963 97.213 17.6975 97.2144 17.6992C97.2159 17.701 97.2171 17.7017 97.2173 17.7027C97.2214 17.7069 97.2254 17.7111 97.2297 17.7163C97.235 17.7213 97.2395 17.7275 97.2455 17.7312C97.2491 17.7335 97.2515 17.735 97.2541 17.7375C97.2553 17.7382 97.2558 17.7402 97.2568 17.74C97.8633 18.0912 98.5446 18.3014 99.2568 18.379C99.2611 18.38 99.2647 18.3823 99.2688 18.3823C99.2741 18.3832 99.2799 18.3818 99.286 18.3814C100.686 18.5269 102.202 18.1536 103.519 17.2796C105.341 16.0695 106.146 14.3186 105.916 12.0757L107.528 11.0065C107.587 10.9678 107.603 10.8872 107.565 10.828C107.534 10.7813 107.479 10.7612 107.429 10.7731C107.415 10.7766 107.402 10.7827 107.388 10.7911L105.778 11.8611C104.474 11.1242 103.186 10.9013 101.932 11.199C101.311 11.3463 100.698 11.6201 100.095 12.02C98.0976 13.3464 96.9599 15.5535 97.1958 17.6426C97.1963 17.6445 97.1975 17.6453 97.197 17.6475L97.1993 17.6573C97.1988 17.6636 97.2023 17.67 97.2049 17.6767L97.205 17.6766ZM97.6142 15.7192L99.2306 16.2058L97.4316 17.4001C97.3946 16.8392 97.457 16.2712 97.6142 15.7191L97.6142 15.7192ZM97.5726 17.6153L99.3716 16.421L99.1739 18.1117C98.6079 18.0388 98.0677 17.8718 97.5725 17.6153L97.5726 17.6153ZM99.4274 18.1376L99.6498 16.2369L101.545 14.9782L101.191 18.0061C100.599 18.1404 100.003 18.1843 99.4274 18.1377L99.4274 18.1376ZM100.22 12.3092L103.578 13.32L101.683 14.5786L98.6735 13.6726C99.0857 13.1491 99.5897 12.6763 100.171 12.2814C100.184 12.2928 100.2 12.3036 100.22 12.3092L100.22 12.3092ZM103.307 17.0482C103.305 17.0675 103.308 17.0863 103.314 17.1045C102.724 17.487 102.094 17.7669 101.456 17.9411L101.824 14.7939L103.719 13.5353L103.307 17.0482ZM103.578 16.9239L103.995 13.3515L105.674 12.2364C105.847 14.2526 105.159 15.7904 103.578 16.9239L103.578 16.9239ZM105.535 12.0199L103.855 13.1343L100.44 12.106C102.096 11.0904 103.768 11.0605 105.535 12.0199L105.535 12.0199ZM98.5097 13.8908C98.51 13.8917 98.51 13.8917 98.5109 13.8915L101.405 14.7629L99.5087 16.0217L97.6918 15.4739C97.8774 14.9212 98.1531 14.3866 98.5096 13.8908L98.5097 13.8908Z" fill="#6082C0"/>
<path opacity="0.3" d="M175.405 21.4672C175.405 21.4733 175.403 21.4813 175.405 21.4866C175.405 21.4887 175.404 21.4896 175.405 21.4917C175.405 21.4938 175.406 21.495 175.406 21.496C175.408 21.5014 175.41 21.5069 175.412 21.5133C175.415 21.5199 175.417 21.5273 175.421 21.533C175.424 21.5365 175.426 21.5388 175.427 21.5421C175.428 21.5432 175.428 21.5452 175.429 21.5454C175.858 22.0992 176.41 22.5507 177.04 22.8908C177.044 22.8934 177.047 22.8969 177.05 22.8985C177.055 22.9012 177.061 22.9022 177.067 22.9041C178.308 23.5662 179.854 23.7918 181.403 23.4786C183.547 23.044 184.952 21.7253 185.584 19.5612L187.48 19.1782C187.549 19.1643 187.595 19.0959 187.581 19.0265C187.571 18.9718 187.527 18.9325 187.476 18.9246C187.462 18.9223 187.447 18.9232 187.432 18.9259L185.536 19.3101C184.606 18.1363 183.498 17.4448 182.224 17.2478C181.593 17.1503 180.922 17.1731 180.213 17.3164C177.863 17.7924 175.977 19.4082 175.409 21.4322C175.409 21.4342 175.409 21.4353 175.408 21.4372L175.407 21.4471C175.404 21.4528 175.405 21.4601 175.404 21.4672L175.405 21.4672ZM176.521 19.8082L177.835 20.8679L175.719 21.2965C175.896 20.7629 176.168 20.2603 176.521 19.8081L176.521 19.8082ZM175.768 21.5489L177.885 21.1204L177.064 22.6121C176.568 22.3313 176.13 21.973 175.768 21.5489L175.768 21.5489ZM177.289 22.7315L178.212 21.0546L180.441 20.6028L178.973 23.2743C178.374 23.1756 177.806 22.9919 177.289 22.7316L177.289 22.7315ZM180.22 17.6313L182.95 19.8329L180.72 20.2847L178.273 18.3115C178.853 17.9819 179.497 17.7338 180.185 17.5872C180.193 17.6027 180.203 17.6186 180.22 17.6313L180.22 17.6313ZM181.294 23.1842C181.284 23.201 181.28 23.2198 181.279 23.239C180.588 23.3708 179.899 23.3929 179.243 23.3138L180.769 20.5372L182.999 20.0854L181.294 23.1842ZM181.592 23.1711L183.324 20.0193L185.299 19.6189C184.7 21.5516 183.483 22.7167 181.591 23.171L181.592 23.1711ZM185.252 19.3659L183.276 19.7652L180.5 17.5258C182.417 17.2092 183.976 17.8113 185.252 19.3659L185.252 19.3659ZM178.04 18.4519C178.039 18.4529 178.039 18.4529 178.04 18.453L180.393 20.3505L178.162 20.8022L176.685 19.6102C177.066 19.1682 177.522 18.7768 178.039 18.4519L178.04 18.4519Z" fill="#6082C0"/>
<path opacity="0.3" d="M184.293 61.559C184.288 61.5629 184.281 61.567 184.278 61.5713C184.277 61.5732 184.275 61.5728 184.274 61.5747C184.273 61.5766 184.273 61.5779 184.272 61.5784C184.269 61.5836 184.266 61.5887 184.262 61.5943C184.259 61.6008 184.255 61.607 184.253 61.6138C184.252 61.6179 184.251 61.6207 184.249 61.6239C184.249 61.6253 184.247 61.6263 184.248 61.6272C184.091 62.3103 184.091 63.0233 184.227 63.7267C184.227 63.7311 184.226 63.7352 184.227 63.7392C184.228 63.7445 184.231 63.7496 184.233 63.7553C184.507 65.1355 185.311 66.4745 186.535 67.4755C188.228 68.8594 190.139 69.1119 192.214 68.2309L193.711 69.4559C193.765 69.5002 193.847 69.4923 193.893 69.438C193.928 69.3951 193.931 69.3368 193.905 69.2922C193.897 69.2794 193.888 69.2689 193.876 69.2586L192.378 68.035C192.698 66.5718 192.531 65.2761 191.877 64.165C191.553 63.615 191.11 63.1105 190.55 62.6523C188.694 61.1348 186.249 60.6987 184.323 61.5402C184.321 61.5412 184.321 61.5426 184.319 61.5427L184.31 61.5479C184.304 61.5492 184.299 61.5545 184.293 61.5589L184.293 61.559ZM186.284 61.3727L186.296 63.0607L184.624 61.694C185.149 61.4932 185.71 61.3853 186.284 61.3727L186.284 61.3727ZM184.46 61.8921L186.132 63.2589L184.458 63.5687C184.361 63.0064 184.361 62.4409 184.46 61.8921L184.46 61.8921ZM184.508 63.8185L186.39 63.4704L188.151 64.91L185.154 65.4653C184.851 64.9388 184.633 64.3828 184.508 63.8185L184.508 63.8185ZM190.311 62.8568L190.336 66.3639L188.574 64.9242L188.552 61.7813C189.174 62.0207 189.774 62.3628 190.323 62.8022C190.316 62.8179 190.311 62.8362 190.311 62.8568L190.311 62.8568ZM186.693 67.2043C186.674 67.2076 186.657 67.2164 186.642 67.2278C186.102 66.7762 185.649 66.2573 185.294 65.6989L188.41 65.1224L190.172 66.562L186.693 67.2043ZM186.892 67.4265L190.429 66.7718L191.989 68.0471C190.114 68.8068 188.441 68.6024 186.892 67.4264L186.892 67.4265ZM192.155 67.8503L190.595 66.5736L190.57 63.0067C192.029 64.29 192.55 65.8785 192.155 67.8503L192.155 67.8503ZM188.295 61.6891C188.294 61.6896 188.294 61.6896 188.295 61.6905L188.316 64.7126L186.554 63.2721L186.541 61.3745C187.124 61.3888 187.716 61.4946 188.295 61.689L188.295 61.6891Z" fill="#6082C0"/>
<path opacity="0.3" d="M153.415 77.4941C153.42 77.498 153.425 77.5041 153.43 77.5066C153.432 77.5075 153.432 77.5089 153.434 77.5098C153.436 77.5106 153.438 77.5108 153.438 77.5115C153.444 77.5134 153.449 77.5152 153.456 77.5178C153.463 77.5198 153.469 77.5232 153.477 77.5237C153.481 77.5241 153.484 77.5243 153.487 77.5253C153.489 77.5254 153.49 77.5269 153.491 77.5262C154.191 77.5567 154.892 77.4276 155.559 77.1665C155.563 77.1655 155.568 77.1658 155.571 77.1639C155.576 77.1622 155.581 77.1583 155.586 77.1552C156.894 76.636 158.065 75.6029 158.828 74.2183C159.883 72.3021 159.785 70.3776 158.543 68.496L159.477 66.8018C159.51 66.7406 159.488 66.6614 159.426 66.6268C159.378 66.5996 159.32 66.6071 159.281 66.641C159.269 66.6508 159.261 66.6622 159.253 66.6758L158.321 68.3701C156.824 68.3207 155.58 68.7192 154.605 69.564C154.123 69.9822 153.707 70.5085 153.358 71.1422C152.201 73.2428 152.215 75.7258 153.391 77.4682C153.393 77.4697 153.394 77.4698 153.395 77.472L153.401 77.4796C153.404 77.4855 153.41 77.4895 153.415 77.4942L153.415 77.4941ZM152.872 75.5697L154.53 75.2525L153.488 77.1441C153.196 76.6641 152.988 76.1317 152.872 75.5696L152.872 75.5697ZM153.713 77.2696L154.754 75.3779L155.362 76.968C154.827 77.1655 154.27 77.2676 153.713 77.2696L153.713 77.2696ZM155.599 76.8736L154.916 75.0859L156.012 73.0928L157.101 75.9402C156.638 76.3336 156.131 76.6483 155.599 76.8737L155.599 76.8736ZM153.602 71.3407L157.047 70.6815L155.95 72.6746L152.863 73.2652C152.986 72.6103 153.214 71.9579 153.546 71.3385C153.563 71.3427 153.582 71.3449 153.602 71.3407L153.602 71.3407ZM158.533 74.1115C158.539 74.1298 158.551 74.1449 158.565 74.1581C158.219 74.7707 157.791 75.3102 157.306 75.7601L156.175 72.8002L157.271 70.807L158.533 74.1115ZM158.715 73.8759L157.431 70.5163L158.403 68.7505C159.49 70.4575 159.591 72.1394 158.715 73.8759L158.715 73.8759ZM158.179 68.6231L157.206 70.3887L153.703 71.0589C154.701 69.3917 156.169 68.5911 158.179 68.623L158.179 68.6231ZM152.819 73.5344C152.819 73.5352 152.819 73.5352 152.82 73.5345L155.789 72.9668L154.691 74.9606L152.827 75.3163C152.735 74.7405 152.732 74.139 152.819 73.5345L152.819 73.5344Z" fill="#6082C0"/>
</svg>
